<svg width="57" height="79" viewBox="0 0 57 79" fill="none" xmlns="http://www.w3.org/2000/svg">
<path fill-rule="evenodd" clip-rule="evenodd" d="M2.5262 2.5262C0 5.05241 0 9.11827 0 17.25V28.75C0 36.8817 0 40.9476 2.5262 43.4738C5.05241 46 9.11827 46 17.25 46H28.75C36.8817 46 40.9476 46 43.4738 43.4738C46 40.9476 46 36.8817 46 28.75V17.25C46 9.11827 46 5.05241 43.4738 2.5262C40.9476 0 36.8817 0 28.75 0H17.25C9.11827 0 5.05241 0 2.5262 2.5262ZM11.4811 14.4099C9.58715 14.4099 8.05 12.8571 8.05 10.9425C8.05 9.02789 9.58715 7.475 11.4811 7.475C13.3751 7.475 14.9123 9.02789 14.9123 10.9425C14.9123 12.8571 13.3771 14.4099 11.4811 14.4099ZM8.54016 38.525V16.9024H14.4221V38.525H8.54016ZM32.068 38.525H37.95V25.2389C37.95 14.9132 26.9644 15.2886 24.2254 20.3719V16.9024H18.3434V38.525H24.2254V27.5093C24.2254 21.3901 32.068 20.8889 32.068 27.5093V38.525Z" fill="url(#paint0_linear)"/>
<path d="M2.352 71.964H5.768V73H1.078V63.242H2.352V71.964ZM7.77897 64.082C7.5363 64.082 7.33097 63.998 7.16297 63.83C6.99497 63.662 6.91097 63.4567 6.91097 63.214C6.91097 62.9713 6.99497 62.766 7.16297 62.598C7.33097 62.43 7.5363 62.346 7.77897 62.346C8.0123 62.346 8.2083 62.43 8.36697 62.598C8.53497 62.766 8.61897 62.9713 8.61897 63.214C8.61897 63.4567 8.53497 63.662 8.36697 63.83C8.2083 63.998 8.0123 64.082 7.77897 64.082ZM8.39497 65.328V73H7.12097V65.328H8.39497ZM14.3043 65.188C15.2376 65.188 15.9936 65.4727 16.5723 66.042C17.1509 66.602 17.4403 67.414 17.4403 68.478V73H16.1803V68.66C16.1803 67.8947 15.9889 67.3113 15.6063 66.91C15.2236 66.4993 14.7009 66.294 14.0383 66.294C13.3663 66.294 12.8296 66.504 12.4283 66.924C12.0363 67.344 11.8403 67.9553 11.8403 68.758V73H10.5663V65.328H11.8403V66.42C12.0923 66.028 12.4329 65.7247 12.8623 65.51C13.3009 65.2953 13.7816 65.188 14.3043 65.188ZM23.8054 73L20.7954 69.612V73H19.5214V62.64H20.7954V68.73L23.7494 65.328H25.5274L21.9154 69.15L25.5414 73H23.8054ZM33.7264 68.87C33.7264 69.1127 33.7124 69.3693 33.6844 69.64H27.5524C27.5991 70.396 27.8558 70.9887 28.3224 71.418C28.7984 71.838 29.3724 72.048 30.0444 72.048C30.5951 72.048 31.0524 71.922 31.4164 71.67C31.7898 71.4087 32.0511 71.0633 32.2004 70.634H33.5724C33.3671 71.3713 32.9564 71.9733 32.3404 72.44C31.7244 72.8973 30.9591 73.126 30.0444 73.126C29.3164 73.126 28.6631 72.9627 28.0844 72.636C27.5151 72.3093 27.0671 71.8473 26.7404 71.25C26.4138 70.6433 26.2504 69.9433 26.2504 69.15C26.2504 68.3567 26.4091 67.6613 26.7264 67.064C27.0438 66.4667 27.4871 66.0093 28.0564 65.692C28.6351 65.3653 29.2978 65.202 30.0444 65.202C30.7724 65.202 31.4164 65.3607 31.9764 65.678C32.5364 65.9953 32.9658 66.434 33.2644 66.994C33.5724 67.5447 33.7264 68.17 33.7264 68.87ZM32.4104 68.604C32.4104 68.1187 32.3031 67.7033 32.0884 67.358C31.8738 67.0033 31.5798 66.7373 31.2064 66.56C30.8424 66.3733 30.4364 66.28 29.9884 66.28C29.3444 66.28 28.7938 66.4853 28.3364 66.896C27.8884 67.3067 27.6318 67.876 27.5664 68.604H32.4104ZM34.9321 69.136C34.9321 68.352 35.0907 67.666 35.4081 67.078C35.7254 66.4807 36.1594 66.0187 36.7101 65.692C37.2701 65.3653 37.8954 65.202 38.5861 65.202C39.1834 65.202 39.7387 65.342 40.2521 65.622C40.7654 65.8927 41.1574 66.252 41.4281 66.7V62.64H42.7161V73H41.4281V71.558C41.1761 72.0153 40.8027 72.3933 40.3081 72.692C39.8134 72.9813 39.2347 73.126 38.5721 73.126C37.8907 73.126 37.2701 72.958 36.7101 72.622C36.1594 72.286 35.7254 71.8147 35.4081 71.208C35.0907 70.6013 34.9321 69.9107 34.9321 69.136ZM41.4281 69.15C41.4281 68.5713 41.3114 68.0673 41.0781 67.638C40.8447 67.2087 40.5274 66.882 40.1261 66.658C39.7341 66.4247 39.3001 66.308 38.8241 66.308C38.3481 66.308 37.9141 66.42 37.5221 66.644C37.1301 66.868 36.8174 67.1947 36.5841 67.624C36.3507 68.0533 36.2341 68.5573 36.2341 69.136C36.2341 69.724 36.3507 70.2373 36.5841 70.676C36.8174 71.1053 37.1301 71.4367 37.5221 71.67C37.9141 71.894 38.3481 72.006 38.8241 72.006C39.3001 72.006 39.7341 71.894 40.1261 71.67C40.5274 71.4367 40.8447 71.1053 41.0781 70.676C41.3114 70.2373 41.4281 69.7287 41.4281 69.15Z" fill="#181818"/>
<path d="M46.143 63.242V73H44.869V63.242H46.143ZM52.0523 65.188C52.9857 65.188 53.7417 65.4727 54.3203 66.042C54.899 66.602 55.1883 67.414 55.1883 68.478V73H53.9283V68.66C53.9283 67.8947 53.737 67.3113 53.3543 66.91C52.9717 66.4993 52.449 66.294 51.7863 66.294C51.1143 66.294 50.5777 66.504 50.1763 66.924C49.7843 67.344 49.5883 67.9553 49.5883 68.758V73H48.3143V65.328H49.5883V66.42C49.8403 66.028 50.181 65.7247 50.6103 65.51C51.049 65.2953 51.5297 65.188 52.0523 65.188Z" fill="#0275B1"/>
<defs>
<linearGradient id="paint0_linear" x1="23" y1="0" x2="23" y2="46" gradientUnits="userSpaceOnUse">
<stop stop-color="#0077B5"/>
<stop offset="1" stop-color="#0E6795"/>
</linearGradient>
</defs>
</svg>
